<?xml version="1.0" encoding="utf-8"?>
<!-- Generator: Adobe Illustrator 16.0.0, SVG Export Plug-In . SVG Version: 6.00 Build 0)  -->
<svg version="1.2" baseProfile="tiny" id="Layer_1" xmlns="http://www.w3.org/2000/svg" xmlns:xlink="http://www.w3.org/1999/xlink"
	 x="0px" y="0px" width="50px" height="50px" viewBox="0 0 50 50" xml:space="preserve">
<g>
	<path fill="#F48323" d="M25.644,42.72V40.07c-1.521-0.026-3.068-0.498-3.986-1.154l0.629-1.757
		c0.918,0.629,2.282,1.128,3.725,1.128c1.889,0,3.148-1.076,3.148-2.571c0-1.442-1.023-2.334-2.965-3.121
		c-2.675-1.049-4.327-2.282-4.327-4.563c0-2.178,1.547-3.83,3.935-4.223v-2.623h1.652v2.543c1.573,0.053,2.648,0.473,3.409,0.919
		l-0.655,1.731c-0.551-0.315-1.626-0.918-3.305-0.918c-2.021,0-2.781,1.206-2.781,2.281c0,1.338,0.971,2.02,3.253,2.99
		c2.702,1.102,4.065,2.439,4.065,4.774c0,2.098-1.442,4.039-4.145,4.485v2.728H25.644z"/>
</g>
<g>
	<path fill="none" d="M34.202,7.203c-1.589-1.99-4.137-3.068-7.574-3.204C22.865,3.858,20.1,4.787,18.387,6.78
		c-2.275,2.649-2.178,6.552-2.012,8.22h2.087c0.015-1.508,0.316-4.235,2.113-6.25c1.429-1.604,3.478-2.416,6.092-2.416
		c2.464,0,4.37,0.779,5.664,2.316c1.695,2.015,1.844,4.794,1.769,6.35h2.017C36.256,13.412,36.29,9.821,34.202,7.203z"/>
	<path fill="#F48323" d="M35.775,5.969c-1.967-2.474-5.019-3.809-9.069-3.968C22.308,1.826,18.99,3,16.861,5.486
		c-2.683,3.133-2.687,7.445-2.5,9.514h2.014c-0.166-1.668-0.264-5.57,2.012-8.22c1.713-1.993,4.479-2.922,8.241-2.781
		c3.438,0.136,5.985,1.214,7.574,3.204c2.088,2.618,2.054,6.209,1.914,7.797h2.012C38.283,13.042,38.23,9.055,35.775,5.969z"/>
	<path fill="#F48323" d="M32.331,8.65c-1.294-1.537-3.2-2.316-5.664-2.316c-2.614,0-4.663,0.813-6.092,2.416
		c-1.797,2.015-2.099,4.742-2.113,6.25h1.999c0.013-1.206,0.243-3.39,1.606-4.92c1.033-1.159,2.581-1.746,4.6-1.746
		c1.843,0,3.232,0.537,4.129,1.599c1.298,1.536,1.368,3.844,1.299,5.067H34.1C34.175,13.444,34.026,10.665,32.331,8.65z"/>
</g>
<path fill="#F48323" d="M44.966,46.415H7.467V16.582h37.499V46.415z M8.967,44.915h34.499V18.082H8.967V44.915z"/>
</svg>
