<?xml version="1.0" encoding="utf-8"?>
<!-- Generator: Adobe Illustrator 16.0.0, SVG Export Plug-In . SVG Version: 6.00 Build 0)  -->
<svg version="1.2" baseProfile="tiny" xmlns="http://www.w3.org/2000/svg" xmlns:xlink="http://www.w3.org/1999/xlink" x="0px"
	 y="0px" width="826.604px" height="202.677px" viewBox="0 0 826.604 202.677" xml:space="preserve">
<g id="Layer_1">
	<g>
		<polygon fill="#F58426" points="0,2.571 0,26.725 41.309,26.725 41.309,133.384 66.941,133.384 66.941,26.725 108.238,26.725 
			108.238,2.571 		"/>
		<g>
			<path fill="#F58426" d="M121.617,114.031c12.301,0,21.893-9.418,21.893-25.498c0-15.929-9.592-24.788-21.893-24.788
				c-12.305,0-22.067,9.034-22.067,24.962C99.55,104.613,108.955,114.031,121.617,114.031 M166.837,133.384h-23.15v-10.306
				c-3.983,7.059-13.023,12.483-24.967,12.483c-25.322,0-43.421-19.89-43.421-46.854c0-26.052,17.551-46.48,42.7-46.48
				c15.374,0,22.617,6.317,25.146,11.016v-8.858h23.693V133.384z"/>
			<path fill="#F58426" d="M201.298,133.384h-24.062V44.386h23.339v11.039c5.419-9.221,16.103-13.393,25.684-13.393
				c22.076,0,32.193,15.748,32.193,35.275v56.077h-24.049V81.468c0-9.955-4.887-17.723-16.465-17.723
				c-10.488,0-16.641,8.145-16.641,18.458V133.384z"/>
			<path fill="#F58426" d="M333.339,86.175c0-13.749-9.406-22.43-20.993-22.43c-11.929,0-21.343,8.681-21.343,22.43
				c0,13.936,8.868,22.616,21.343,22.616C324.652,108.791,333.339,99.934,333.339,86.175 M288.475,132.488
				c1.62,9.753,9.4,16.815,20.801,16.815c15.202,0,23.707-7.59,23.707-24.77v-6.528c-3.619,5.8-11.952,11.402-24.793,11.402
				c-23.701,0-41.42-18.259-41.42-43.233c0-23.515,17.006-43.408,41.42-43.408c14.111,0,22.252,6.142,25.331,12.106V44.386h23.158
				v79.42c0,24.411-13.212,46.668-46.667,46.668c-24.424,0-40.713-15.192-43.242-32.207L288.475,132.488z"/>
			<path fill="#F58426" d="M429.043,78.756c-0.367-8.858-6.164-17.543-19.902-17.543c-12.481,0-19.361,9.417-19.9,17.543H429.043z
				 M451.459,107.878c-4.517,15.378-18.626,28.234-40.515,28.234c-24.42,0-45.949-17.554-45.949-47.579
				c0-28.41,20.987-46.852,43.773-46.852c27.502,0,43.965,17.537,43.965,46.123c0,3.432-0.353,7.043-0.353,7.416h-63.685
				c0.544,11.758,10.494,20.251,22.438,20.251c11.201,0,17.368-5.6,20.253-13.569L451.459,107.878z"/>
		</g>
		<rect x="523.626" y="44.386" fill="#F58426" width="24.054" height="88.998"/>
		<g>
			<path fill="#F58426" d="M582.137,133.384H558.07V44.386h23.346v11.039c5.424-9.221,16.094-13.393,25.684-13.393
				c22.068,0,32.204,15.748,32.204,35.275v56.077h-24.05V81.468c0-9.955-4.892-17.723-16.473-17.723
				c-10.489,0-16.645,8.145-16.645,18.458V133.384z"/>
			<path fill="#F58426" d="M711.659,78.756c-0.375-8.858-6.149-17.543-19.908-17.543c-12.476,0-19.343,9.417-19.897,17.543H711.659z
				 M734.082,107.878c-4.515,15.378-18.624,28.234-40.522,28.234c-24.424,0-45.94-17.554-45.94-47.579
				c0-28.41,20.986-46.852,43.777-46.852c27.496,0,43.948,17.537,43.948,46.123c0,3.432-0.356,7.043-0.356,7.416h-63.68
				c0.545,11.758,10.492,20.251,22.435,20.251c11.208,0,17.378-5.6,20.255-13.569L734.082,107.878z"/>
			<path fill="#F58426" d="M550.296,14.653c0,8.083-6.554,14.646-14.639,14.646c-8.097,0-14.647-6.563-14.647-14.646
				C521.01,6.562,527.561,0,535.657,0C543.742,0,550.296,6.562,550.296,14.653"/>
			<path fill="#F58426" d="M515.304,67.642c-2.712-0.54-5.063-0.723-7.233-0.723c-12.299,0-22.967,5.969-22.967,25.144v41.317
				h-24.061V44.39h23.332v13.834c5.43-11.757,17.725-15.175,25.326-15.175c1.983,0,3.798,0.179,5.603,0.36V67.642z"/>
			<path fill="#F58426" d="M825.829,5.984c1.113,2.038,1.039,4.703-0.302,6.786l-45.28,70.546c-1.162,1.807-3.446,2.535-5.439,1.73
				c-1.992-0.813-3.223-2.944-2.702-5.031c2.592-10.36,5.511-28.217-2.696-43.205c-8.181-15.005-24.784-22.195-34.901-25.61
				c-2.035-0.687-3.168-2.875-2.772-4.991c0.398-2.111,2.243-3.643,4.395-3.641l83.827,0.002
				C822.43,2.569,824.713,3.947,825.829,5.984"/>
		</g>
	</g>
	<g>
		<polygon fill="#77787B" points="380.969,193.074 380.969,159.865 401.155,159.865 401.155,164.128 385.557,164.128 
			385.557,174.807 399.705,174.807 399.705,179.114 385.557,179.114 385.557,193.074 		"/>
		<g>
			<path fill="#77787B" d="M421.529,181.785c0-5.199-3.275-8.007-7.025-8.007c-3.745,0-7.025,2.808-7.025,8.007
				c0,5.249,3.28,8.058,7.025,8.058C418.254,189.843,421.529,187.034,421.529,181.785 M426.028,181.785
				c0,6.886-4.779,11.991-11.524,11.991c-6.742,0-11.521-5.105-11.521-11.991c0-6.838,4.779-11.943,11.521-11.943
				C421.249,169.842,426.028,174.947,426.028,181.785"/>
			<path fill="#77787B" d="M443.233,174.992c-0.656-0.094-1.31-0.139-1.921-0.139c-3.699,0-6.186,1.965-6.186,6.932v11.289h-4.398
				v-22.531h4.31v3.934c1.642-3.463,4.449-4.307,6.741-4.307c0.61,0,1.22,0.094,1.454,0.139V174.992z"/>
		</g>
		<polygon fill="#77787B" points="466.334,170.543 472.194,187.501 477.157,170.543 481.793,170.543 474.482,193.074 
			469.942,193.074 463.945,175.929 458.096,193.074 453.454,193.074 446.055,170.543 450.879,170.543 455.94,187.501 
			461.793,170.543 		"/>
		<g>
			<path fill="#77787B" d="M494.992,189.797c4.028,0,6.515-3.516,6.515-8.152s-2.44-7.821-6.464-7.821
				c-4.029,0-6.652,3.185-6.652,7.821S490.781,189.797,494.992,189.797 M501.551,189.655c-1.074,2.152-3.465,4.028-6.979,4.028
				c-6.601,0-10.675-5.339-10.675-12.039c0-6.369,4.306-11.709,10.675-11.709c3.982,0,6.138,1.964,6.889,3.796v-3.187h4.354v18.36
				c0,2.014,0.188,3.747,0.234,4.169h-4.266c-0.088-0.517-0.232-1.686-0.232-3.044V189.655z"/>
			<path fill="#77787B" d="M525.575,174.992c-0.655-0.094-1.312-0.139-1.923-0.139c-3.701,0-6.183,1.965-6.183,6.932v11.289h-4.402
				v-22.531h4.306v3.934c1.643-3.463,4.454-4.307,6.748-4.307c0.612,0,1.221,0.094,1.454,0.139V174.992z"/>
			<path fill="#77787B" d="M539.243,189.797c4.03,0,6.513-3.516,6.513-8.152s-2.438-7.821-6.462-7.821
				c-4.028,0-6.653,3.278-6.653,7.918C532.641,186.376,535.031,189.797,539.243,189.797 M545.803,189.655
				c-1.075,2.152-3.466,4.028-6.98,4.028c-6.602,0-10.675-5.246-10.675-11.942c0-6.374,4.306-11.806,10.675-11.806
				c3.98,0,6.138,1.964,6.886,3.796V159.16h4.356v29.745c0,2.154,0.189,3.796,0.236,4.169h-4.268
				c-0.088-0.517-0.23-1.686-0.23-3.044V189.655z"/>
			<path fill="#77787B" d="M580.688,189.046c3.698,0,6.228-2.061,6.228-5.293c0-3.187-2.018-5.434-6.041-5.434h-6.557v10.727
				H580.688z M580.035,174.386c3.696,0,5.896-2.201,5.896-5.292c0-3.141-2.295-5.2-6.088-5.2h-5.525v10.492H580.035z
				 M580.546,159.865c6.325,0,10.025,3.747,10.025,8.993c0,3.559-2.063,6.087-4.964,7.168c3.789,0.935,5.994,4.306,5.994,8.008
				c0,5.246-4.172,9.04-10.255,9.04h-11.625v-33.209H580.546z"/>
			<path fill="#77787B" d="M606.906,189.797c4.03,0,6.515-3.516,6.515-8.152s-2.439-7.821-6.466-7.821
				c-4.028,0-6.649,3.185-6.649,7.821S602.693,189.797,606.906,189.797 M613.467,189.655c-1.077,2.152-3.467,4.028-6.98,4.028
				c-6.602,0-10.675-5.339-10.675-12.039c0-6.369,4.306-11.709,10.675-11.709c3.981,0,6.137,1.964,6.887,3.796v-3.187h4.356v18.36
				c0,2.014,0.187,3.747,0.233,4.169H613.7c-0.093-0.517-0.233-1.686-0.233-3.044V189.655z"/>
			<path fill="#77787B" d="M629.385,193.074h-4.406v-22.529h4.31v3.233c1.641-2.812,4.312-3.893,6.936-3.893
				c5.387,0,8.053,3.893,8.053,8.902v14.286h-4.401v-13.538c0-3.138-1.308-5.668-5.249-5.668c-3.463,0-5.241,2.766-5.241,6.184
				V193.074z"/>
		</g>
		<polygon fill="#77787B" points="661.883,180.054 671.675,193.076 666.146,193.076 658.795,183.142 655.652,186.281 
			655.652,193.076 651.301,193.076 651.301,159.16 655.652,159.16 655.652,180.521 665.398,170.543 671.487,170.543 		"/>
		<g>
			<path fill="#77787B" d="M675.884,170.543h4.359v22.529h-4.359V170.543z M678.034,158.832c1.785,0,3.188,1.409,3.188,3.187
				c0,1.734-1.402,3.138-3.188,3.138c-1.73,0-3.134-1.403-3.134-3.138C674.9,160.241,676.304,158.832,678.034,158.832"/>
			<path fill="#77787B" d="M692.129,193.074h-4.399v-22.529h4.31v3.233c1.643-2.812,4.308-3.893,6.932-3.893
				c5.386,0,8.058,3.893,8.058,8.902v14.286h-4.407v-13.538c0-3.138-1.309-5.668-5.241-5.668c-3.465,0-5.251,2.766-5.251,6.184
				V193.074z"/>
			<path fill="#77787B" d="M729.877,181.083c0-4.357-2.62-7.215-6.417-7.215c-3.886,0-6.508,2.857-6.508,7.215
				c0,4.404,2.53,7.213,6.508,7.213C727.257,188.296,729.877,185.438,729.877,181.083 M716.67,193.309
				c0.326,3.14,2.717,5.526,6.136,5.526c4.729,0,6.884-2.436,6.884-7.307v-3.232c-1.078,2.063-3.51,3.702-6.884,3.702
				c-5.995,0-10.35-4.545-10.35-10.915c0-6.091,4.165-10.962,10.35-10.962c3.466,0,5.806,1.313,6.936,3.562v-3.138h4.354v20.842
				c0,5.715-2.813,11.29-11.289,11.29c-5.622,0-9.836-3.561-10.396-8.384L716.67,193.309z"/>
		</g>
	</g>
</g>
<g id="TM" display="none">
	<g display="inline">
		<path fill="#77787B" d="M741.378,164.637v5.91h-1.421v-5.91h-2.29v-1.34h6.002v1.34H741.378z"/>
		<path fill="#77787B" d="M751.558,170.547v-5.081l-2.086,5.081h-1.175l-2.086-5.041v5.041h-1.35v-7.25h1.86l2.179,5.235
			l2.127-5.235h1.922v7.25H751.558z"/>
	</g>
</g>
<g id="Layer_2">
</g>
</svg>
