<?xml version="1.0" encoding="utf-8"?>
<!-- Generator: Adobe Illustrator 15.0.0, SVG Export Plug-In . SVG Version: 6.00 Build 0)  -->
<svg version="1.2" baseProfile="tiny" id="Layer_1" xmlns="http://www.w3.org/2000/svg" xmlns:xlink="http://www.w3.org/1999/xlink"
	 x="0px" y="0px" width="258.757px" height="51.278px" viewBox="0 0 258.757 51.278" xml:space="preserve">
<g>
	<path fill="#50B748" d="M221.167,51.278h-10.703c-6.927,0-12.542-5.615-12.542-12.542V26.298c0-6.926,5.615-12.542,12.542-12.542
		h7.372c6.927,0,12.543,5.615,12.543,12.542v7.182c0,2.119-1.651,3.827-3.718,3.915h-12.03c-2.188,0-3.93-1.724-3.93-3.869
		c0-2.138,1.731-3.87,3.869-3.87l8.063-0.017v-1.693c0-3.561-2.886-6.447-6.447-6.447h-4.077c-3.56,0-6.445,2.886-6.445,6.447v9.146
		c0,3.562,2.886,6.447,6.445,6.447h9.058V51.278z"/>
	<path fill="#50B748" d="M185.048,51.278h-11.143c-6.927,0-12.542-5.615-12.542-12.542V26.298c0-6.926,5.615-12.542,12.542-12.542
		h7.372c6.927,0,12.543,5.615,12.543,12.542l-0.001,7.182c0.001,2.119-1.649,3.827-3.717,3.915h-12.03
		c-2.188,0-3.93-1.724-3.93-3.869c0-2.138,1.732-3.87,3.869-3.87l8.063-0.017v-1.693c0-3.561-2.887-6.447-6.446-6.447h-4.077
		c-3.561,0-6.447,2.886-6.447,6.447v9.146c0,3.562,2.887,6.447,6.447,6.447h9.496V51.278z"/>
	<path fill="#1B75BB" d="M142.41,4.874l-0.001,8.878h9.187c2.188,0,3.93,1.723,3.93,3.87c0,2.137-1.732,3.87-3.869,3.87
		l-9.251,0.009l-0.003,6.441v9.146c0,3.561,2.886,6.447,6.447,6.447l6.1-0.003c2.138,0,3.871,1.731,3.871,3.87
		c0,2.147-1.745,3.869-3.943,3.875h-7.674c-6.927,0-12.542-5.615-12.542-12.543V4.874H142.41z"/>
	<path fill="#1B75BB" d="M66.009,13.751c2.137,0,3.87,1.733,3.87,3.87l0.002,19.468c0,3.56,2.886,6.446,6.446,6.446h4.077
		c3.561,0,6.447-2.887,6.447-6.446V17.626c0-2.135,1.735-3.883,3.875-3.883c2.141,0,3.87,1.75,3.87,3.883v21.109
		c0,6.928-5.615,12.543-12.542,12.543h-7.373c-6.927,0-12.542-5.615-12.542-12.543V17.622
		C62.139,15.484,63.872,13.751,66.009,13.751"/>
	<path fill="#1B75BB" d="M114.284,21.538c-3.727,0-6.447,1.97-6.447,5.382v1.692l5.462,0.012h12.029
		c2.068,0.089,3.718,1.797,3.718,3.916v6.197c0,6.926-5.615,12.541-12.542,12.541h-16.502v-7.74l14.852-0.002
		c3.561,0,6.447-2.887,6.447-6.446v-0.708l-5.462-0.012l-12.029-0.002c-2.067-0.088-3.718-1.795-3.718-3.914v-6.116
		c0-6.927,5.616-12.542,12.543-12.542h10.047c2.152,0,3.888,1.73,3.888,3.87c0,2.137-1.733,3.87-3.87,3.87L114.284,21.538z"/>
	<path fill="#50B748" d="M235.368,26.299c0-6.927,5.615-12.542,12.542-12.542h10.848v7.745l-9.201-0.003
		c-3.561,0-6.447,2.886-6.447,6.448v9.146l0.009,10.387c-0.042,2.104-1.772,3.8-3.88,3.8c-2.111,0-3.827-1.699-3.87-3.799V26.299z"
		/>
	<path fill="#1B75BB" d="M34.441,26.299c0-6.927,5.615-12.542,12.542-12.542h10.848v7.745l-9.202-0.003
		c-3.56,0-6.447,2.886-6.447,6.448v9.146l0.009,10.387c-0.042,2.104-1.772,3.8-3.88,3.8c-2.111,0-3.827-1.699-3.87-3.799V26.299z"/>
	<path fill="#1B75BB" d="M13.877,51.277l0.041-20.75L13.869,8.08L3.761,8.079C1.672,7.918,0,6.162,0,4.039
		c0-1.971,1.413-3.611,3.279-3.967l14.187-0.043l0.85-0.001L32.801,0c2.191,0.045,3.967,1.836,3.967,4.039
		c0,2.2-1.769,4.006-3.967,4.05L21.945,8.081l-0.005,6.355v15.011v2.789v4.62l0.096,14.421"/>
</g>
</svg>
